<?xml version="1.0" encoding="UTF-8" standalone="no"?>
<!DOCTYPE svg PUBLIC "-//W3C//DTD SVG 1.1//EN"
 "http://www.w3.org/Graphics/SVG/1.1/DTD/svg11.dtd">
<!-- Generated by graphviz version 2.38.0 (20140413.2041)
 -->
<!-- Title: HBVouroboros Pages: 1 -->
<svg width="432pt" height="625pt"
 viewBox="0.00 0.00 432.44 625.00" xmlns="http://www.w3.org/2000/svg" xmlns:xlink="http://www.w3.org/1999/xlink">
<g id="graph0" class="graph" transform="scale(1 1) rotate(0) translate(4 621)">
<title>HBVouroboros</title>
<polygon fill="white" stroke="none" points="-4,4 -4,-621 428.443,-621 428.443,4 -4,4"/>
<!-- fq -->
<g id="node1" class="node"><title>fq</title>
<ellipse fill="none" stroke="black" cx="108.443" cy="-526" rx="55.7903" ry="18"/>
<text text-anchor="middle" x="108.443" y="-522.3" font-family="Times,serif" font-size="14.00">FASTQ files</text>
</g>
<!-- refbams -->
<g id="node4" class="node"><title>refbams</title>
<ellipse fill="none" stroke="black" cx="252.443" cy="-439" rx="48.9926" ry="18"/>
<text text-anchor="middle" x="252.443" y="-435.3" font-family="Times,serif" font-size="14.00">BAM files</text>
</g>
<!-- fq&#45;&gt;refbams -->
<g id="edge3" class="edge"><title>fq&#45;&gt;refbams</title>
<path fill="none" stroke="black" d="M134.188,-509.804C157.779,-495.878 192.859,-475.171 218.688,-459.925"/>
<polygon fill="black" stroke="black" points="220.572,-462.877 227.404,-454.78 217.013,-456.849 220.572,-462.877"/>
<text text-anchor="middle" x="211.443" y="-478.8" font-family="Times,serif" font-size="14.00">bowtie2</text>
</g>
<!-- bam -->
<g id="node8" class="node"><title>bam</title>
<ellipse fill="none" stroke="black" cx="156.443" cy="-105" rx="48.9926" ry="18"/>
<text text-anchor="middle" x="156.443" y="-101.3" font-family="Times,serif" font-size="14.00">BAM files</text>
</g>
<!-- fq&#45;&gt;bam -->
<g id="edge9" class="edge"><title>fq&#45;&gt;bam</title>
<path fill="none" stroke="black" d="M110.375,-507.769C112.129,-490.615 114.443,-463.522 114.443,-440 114.443,-440 114.443,-440 114.443,-177 114.443,-159.73 123.762,-142.977 133.621,-130.085"/>
<polygon fill="black" stroke="black" points="136.449,-132.155 140.085,-122.204 131.037,-127.716 136.449,-132.155"/>
<text text-anchor="middle" x="136.443" y="-304.8" font-family="Times,serif" font-size="14.00">bowtie2</text>
</g>
<!-- hbvdb -->
<g id="node2" class="node"><title>hbvdb</title>
<ellipse fill="none" stroke="black" cx="384.443" cy="-599" rx="38.1938" ry="18"/>
<text text-anchor="middle" x="384.443" y="-595.3" font-family="Times,serif" font-size="14.00">HBVdb</text>
</g>
<!-- HBVrefs -->
<g id="node3" class="node"><title>HBVrefs</title>
<ellipse fill="none" stroke="black" cx="289.443" cy="-526" rx="107.482" ry="18"/>
<text text-anchor="middle" x="289.443" y="-522.3" font-family="Times,serif" font-size="14.00">HBVdb reference genomes</text>
</g>
<!-- hbvdb&#45;&gt;HBVrefs -->
<g id="edge1" class="edge"><title>hbvdb&#45;&gt;HBVrefs</title>
<path fill="none" stroke="black" d="M364.759,-583.289C351.857,-573.646 334.727,-560.843 320.063,-549.884"/>
<polygon fill="black" stroke="black" points="321.871,-546.866 311.766,-543.683 317.68,-552.473 321.871,-546.866"/>
</g>
<!-- infref -->
<g id="node7" class="node"><title>infref</title>
<ellipse fill="none" stroke="black" cx="252.443" cy="-178" rx="96.3833" ry="18"/>
<text text-anchor="middle" x="252.443" y="-174.3" font-family="Times,serif" font-size="14.00">Inferred reference strain</text>
</g>
<!-- hbvdb&#45;&gt;infref -->
<g id="edge2" class="edge"><title>hbvdb&#45;&gt;infref</title>
<path fill="none" stroke="black" d="M399.566,-582.206C410.893,-568.674 424.443,-548.08 424.443,-527 424.443,-527 424.443,-527 424.443,-264 424.443,-222.592 383.883,-201.356 342.155,-190.465"/>
<polygon fill="black" stroke="black" points="342.944,-187.055 332.401,-188.104 341.297,-193.858 342.944,-187.055"/>
</g>
<!-- HBVrefs&#45;&gt;refbams -->
<g id="edge4" class="edge"><title>HBVrefs&#45;&gt;refbams</title>
<path fill="none" stroke="black" d="M281.956,-507.799C276.756,-495.854 269.732,-479.717 263.841,-466.183"/>
<polygon fill="black" stroke="black" points="266.994,-464.657 259.794,-456.885 260.576,-467.451 266.994,-464.657"/>
<text text-anchor="middle" x="295.443" y="-478.8" font-family="Times,serif" font-size="14.00">bowtie2</text>
</g>
<!-- aggmapreads -->
<g id="node5" class="node"><title>aggmapreads</title>
<ellipse fill="none" stroke="black" cx="252.443" cy="-352" rx="103.182" ry="18"/>
<text text-anchor="middle" x="252.443" y="-348.3" font-family="Times,serif" font-size="14.00">Aggregated mapped reads</text>
</g>
<!-- refbams&#45;&gt;aggmapreads -->
<g id="edge5" class="edge"><title>refbams&#45;&gt;aggmapreads</title>
<path fill="none" stroke="black" d="M252.443,-420.799C252.443,-409.163 252.443,-393.548 252.443,-380.237"/>
<polygon fill="black" stroke="black" points="255.944,-380.175 252.443,-370.175 248.944,-380.175 255.944,-380.175"/>
<text text-anchor="middle" x="276.943" y="-391.8" font-family="Times,serif" font-size="14.00">samtools</text>
</g>
<!-- assembly -->
<g id="node6" class="node"><title>assembly</title>
<ellipse fill="none" stroke="black" cx="252.443" cy="-265" rx="76.8869" ry="18"/>
<text text-anchor="middle" x="252.443" y="-261.3" font-family="Times,serif" font-size="14.00">De novo assembly</text>
</g>
<!-- aggmapreads&#45;&gt;assembly -->
<g id="edge6" class="edge"><title>aggmapreads&#45;&gt;assembly</title>
<path fill="none" stroke="black" d="M252.443,-333.799C252.443,-322.163 252.443,-306.548 252.443,-293.237"/>
<polygon fill="black" stroke="black" points="255.944,-293.175 252.443,-283.175 248.944,-293.175 255.944,-293.175"/>
<text text-anchor="middle" x="271.443" y="-304.8" font-family="Times,serif" font-size="14.00">Trinity</text>
</g>
<!-- assembly&#45;&gt;infref -->
<g id="edge7" class="edge"><title>assembly&#45;&gt;infref</title>
<path fill="none" stroke="black" d="M252.443,-246.799C252.443,-235.163 252.443,-219.548 252.443,-206.237"/>
<polygon fill="black" stroke="black" points="255.944,-206.175 252.443,-196.175 248.944,-206.175 255.944,-206.175"/>
<text text-anchor="middle" x="265.443" y="-217.8" font-family="Times,serif" font-size="14.00">blast</text>
</g>
<!-- infref&#45;&gt;bam -->
<g id="edge8" class="edge"><title>infref&#45;&gt;bam</title>
<path fill="none" stroke="black" d="M229.693,-160.174C216.561,-150.462 199.904,-138.143 185.793,-127.707"/>
<polygon fill="black" stroke="black" points="187.512,-124.624 177.391,-121.492 183.349,-130.252 187.512,-124.624"/>
</g>
<!-- mappingstat -->
<g id="node9" class="node"><title>mappingstat</title>
<ellipse fill="none" stroke="black" cx="73.4435" cy="-18" rx="73.387" ry="18"/>
<text text-anchor="middle" x="73.4435" y="-14.3" font-family="Times,serif" font-size="14.00">Mapping statstics</text>
</g>
<!-- bam&#45;&gt;mappingstat -->
<g id="edge10" class="edge"><title>bam&#45;&gt;mappingstat</title>
<path fill="none" stroke="black" d="M137.779,-88.0507C131.196,-82.2189 123.845,-75.4642 117.443,-69 109.633,-61.1126 101.492,-52.1095 94.3682,-43.9366"/>
<polygon fill="black" stroke="black" points="96.8093,-41.4076 87.6325,-36.1126 91.5043,-45.9746 96.8093,-41.4076"/>
<text text-anchor="middle" x="171.943" y="-57.8" font-family="Times,serif" font-size="14.00">bedtools and scripts</text>
</g>
<!-- structvar -->
<g id="node10" class="node"><title>structvar</title>
<ellipse fill="none" stroke="black" cx="240.443" cy="-18" rx="75.2868" ry="18"/>
<text text-anchor="middle" x="240.443" y="-14.3" font-family="Times,serif" font-size="14.00">Structural variants</text>
</g>
<!-- bam&#45;&gt;structvar -->
<g id="edge11" class="edge"><title>bam&#45;&gt;structvar</title>
<path fill="none" stroke="black" d="M192.746,-92.6842C204.969,-87.2635 217.707,-79.5832 226.443,-69 231.77,-62.5478 235.074,-54.202 237.122,-46.1837"/>
<polygon fill="black" stroke="black" points="240.556,-46.8644 239.103,-36.3696 233.694,-45.4795 240.556,-46.8644"/>
</g>
</g>
</svg>
